<svg width="41" height="40" viewBox="0 0 41 40" fill="none" xmlns="http://www.w3.org/2000/svg">
<g clip-path="url(#clip0_10103_6)">
<path d="M40.0269 37.3864L38.3275 31.3961C37.9925 30.2157 38.0534 28.9531 38.5346 27.8244C39.6493 25.2111 40.2218 22.3149 40.1122 19.2726C39.7345 8.70976 31.0428 0.19135 20.4659 0.00272783C9.12161 -0.198063 -0.115261 9.0292 0.085739 20.3617C0.274557 30.9276 8.80184 39.6103 19.3726 39.9875C22.0343 40.0818 24.5834 39.6559 26.9314 38.8041C28.8014 38.1256 30.8327 38.01 32.7452 38.5546L37.5022 39.9054C39.0402 40.3435 40.4624 38.9227 40.0269 37.3864ZM11.159 19.9997C11.159 15.0651 15.1638 11.0645 20.1035 11.0645C25.0433 11.0645 29.048 15.0651 29.048 19.9997C29.048 24.9343 25.0433 28.9349 20.1035 28.9349C15.1638 28.9349 11.159 24.9343 11.159 19.9997Z" fill="url(#paint0_linear_10103_6)"/>
<path d="M38.0143 29.0203C38.0143 29.0203 37.9443 28.7982 37.8072 28.4027C36.7413 25.3848 31.558 12.3181 21.31 11.1499C25.6802 11.7371 29.0485 15.476 29.0485 19.9999C29.0485 24.9345 25.0437 28.9351 20.104 28.9351V39.9969C22.5008 39.9969 24.8001 39.5801 26.9319 38.8073C28.8018 38.1289 30.8331 38.0133 32.7457 38.5579L37.5027 39.9086C39.0407 40.3437 40.4629 38.926 40.0274 37.3866L38.328 31.3963C38.127 30.6936 38.0722 29.9573 38.1605 29.2424L38.0143 29.0203Z" fill="url(#paint1_linear_10103_6)"/>
</g>
<defs>
<linearGradient id="paint0_linear_10103_6" x1="4.9398" y1="-0.000474682" x2="40.4998" y2="2.97609" gradientUnits="userSpaceOnUse">
<stop stop-color="#DF5950"/>
<stop offset="1" stop-color="#451046"/>
</linearGradient>
<linearGradient id="paint1_linear_10103_6" x1="22.5304" y1="11.1499" x2="40.3585" y2="12.1836" gradientUnits="userSpaceOnUse">
<stop stop-color="#DF5950"/>
<stop offset="1" stop-color="#451046"/>
</linearGradient>
<clipPath id="clip0_10103_6">
<rect width="40.0417" height="40" fill="white" transform="translate(0.0830078)"/>
</clipPath>
</defs>
</svg>
